<?xml version="1.0" standalone="no"?>
<!DOCTYPE svg PUBLIC "-//W3C//DTD SVG 20010904//EN"
 "http://www.w3.org/TR/2001/REC-SVG-20010904/DTD/svg10.dtd">
<svg version="1.0" xmlns="http://www.w3.org/2000/svg"
 width="260.000000pt" height="260.000000pt" viewBox="0 0 260.000000 260.000000"
 preserveAspectRatio="xMidYMid meet">
<metadata>
Created by potrace 1.11, written by Peter Selinger 2001-2013
</metadata>
<g transform="translate(0.000000,260.000000) scale(0.100000,-0.100000)"
fill="#000000" stroke="none">
<path d="M0 1300 l0 -1300 1300 0 1300 0 0 1300 0 1300 -1300 0 -1300 0 0
-1300z m2215 245 l0 -820 -26 -55 c-33 -70 -99 -136 -169 -169 -46 -22 -69
-26 -140 -26 -102 0 -173 28 -240 95 -67 67 -95 138 -95 240 0 71 4 94 26 140
49 105 152 181 262 196 l47 7 0 403 c0 222 -3 404 -8 404 -10 0 -783 -159
-804 -166 -16 -5 -18 -50 -20 -652 l-3 -647 -26 -56 c-34 -72 -96 -134 -168
-168 -47 -22 -70 -26 -141 -26 -71 0 -94 4 -142 27 -70 32 -133 96 -167 168
-37 79 -37 201 0 280 49 103 153 182 261 196 l48 7 0 573 0 573 38 7 c20 4
348 71 727 150 380 78 701 142 715 141 l25 -2 0 -820z"/>
</g>
</svg>
